HIERARCHY
ROOT Hips
{
  OFFSET 51.446 97.0914 32.196
  CHANNELS 6 Xposition Yposition Zposition Zrotation Xrotation Yrotation
  JOINT spine
  {
    OFFSET 0 7.96568 0.458067
    CHANNELS 3 Zrotation Xrotation Yrotation
    JOINT spine1
    {
      OFFSET 0 10.2431 0
      CHANNELS 3 Zrotation Xrotation Yrotation
      JOINT spine2
      {
        OFFSET 0 9.81475 0
        CHANNELS 3 Zrotation Xrotation Yrotation
        JOINT Neck
        {
          OFFSET 0 25.1986 1.20138
          CHANNELS 3 Zrotation Xrotation Yrotation
          JOINT Head
          {
            OFFSET 0 7.61315 0
            CHANNELS 3 Zrotation Xrotation Yrotation
            End Site
            {
              OFFSET 0 18.4281 -6.07733
            }
          }
        }
        JOINT RightShoulder
        {
          OFFSET -4.1327 10.5992 -0.575451
          CHANNELS 3 Zrotation Xrotation Yrotation
          JOINT RightArm
          {
            OFFSET 0 13.9018 0
            CHANNELS 3 Zrotation Xrotation Yrotation
            JOINT RightArmRoll
            {
              OFFSET 0 7.01789 0
              CHANNELS 3 Zrotation Xrotation Yrotation
              JOINT RightForeArm
              {
                OFFSET 0 20.4406 0
                CHANNELS 3 Zrotation Xrotation Yrotation
                JOINT RightForeArmRoll
                {
                  OFFSET 0 7.87515 0
                  CHANNELS 3 Zrotation Xrotation Yrotation
                  JOINT RightHand
                  {
                    OFFSET 0 15.8037 0
                    CHANNELS 3 Zrotation Xrotation Yrotation
                    End Site
                    {
                      OFFSET 0 0 0
                    }
                  }
                }
              }
            }
          }
        }
        JOINT LeftShoulder
        {
          OFFSET 4.1327 10.5992 -0.575451
          CHANNELS 3 Zrotation Xrotation Yrotation
          JOINT LeftArm
          {
            OFFSET 0 13.9018 0
            CHANNELS 3 Zrotation Xrotation Yrotation
            JOINT LeftArmRoll
            {
              OFFSET 0 7.01789 0
              CHANNELS 3 Zrotation Xrotation Yrotation
              JOINT LeftForeArm
              {
                OFFSET 0 20.4406 0
                CHANNELS 3 Zrotation Xrotation Yrotation
                JOINT LeftForeArmRoll
                {
                  OFFSET 0 7.87515 0
                  CHANNELS 3 Zrotation Xrotation Yrotation
                  JOINT LeftHand
                  {
                    OFFSET 0 15.8037 0
                    CHANNELS 3 Zrotation Xrotation Yrotation
                    End Site
                    {
                      OFFSET 0 0 0
                    }
                  }
                }
              }
            }
          }
        }
      }
    }
  }
  JOINT RightUpLeg
  {
    OFFSET -7.06048 -1.2947 -1.0861
    CHANNELS 3 Zrotation Xrotation Yrotation
    JOINT RightUpLegRoll
    {
      OFFSET 0 18.5308 0
      CHANNELS 3 Zrotation Xrotation Yrotation
      JOINT RightLeg
      {
        OFFSET 0 -22.9476 0
        CHANNELS 3 Zrotation Xrotation Yrotation
        JOINT RightLegRoll
        {
          OFFSET 0 23.0226 0
          CHANNELS 3 Zrotation Xrotation Yrotation
          JOINT RightFoot
          {
            OFFSET 0 19.1625 0
            CHANNELS 3 Zrotation Xrotation Yrotation
            JOINT RightToeBase
            {
              OFFSET 0 16.0188 0
              CHANNELS 3 Zrotation Xrotation Yrotation
              End Site
              {
                OFFSET 0.00678979 7.75781 -0.894207
              }
            }
          }
        }
      }
    }
  }
  JOINT LeftUpLeg
  {
    OFFSET 7.06048 -1.2947 -1.0861
    CHANNELS 3 Zrotation Xrotation Yrotation
    JOINT LeftUpLegRoll
    {
      OFFSET 0 18.5309 0
      CHANNELS 3 Zrotation Xrotation Yrotation
      JOINT LeftLeg
      {
        OFFSET 0 22.9475 0
        CHANNELS 3 Zrotation Xrotation Yrotation
        JOINT LeftLegRoll
        {
          OFFSET 0 23.2355 0
          CHANNELS 3 Zrotation Xrotation Yrotation
          JOINT LeftFoot
          {
            OFFSET 0 18.9496 0
            CHANNELS 3 Zrotation Xrotation Yrotation
            JOINT LeftToeBase
            {
              OFFSET 0 16.0188 0
              CHANNELS 3 Zrotation Xrotation Yrotation
              End Site
              {
                OFFSET -0.0304289 7.75782 -0.894207
              }
            }
          }
        }
      }
    }
  }
}
MOTION
Frames: 10
Frame Time: 0.00208333
50.0511 93.7185 19.5889 2.26495 11.6906 -4.73032 -0.073169 0.633812 -0.319478 -0.140211 5.27084 -0.626777 -0.132931 6.91588 -0.625277 -16.2445 -35.5907 -6.65126 16.2135 16.9419 -4.34574 58.0736 -4.14561 -2.51265 124.932 35.6743 -24.2983 2.94201e-014 9.54166e-015 4.77083e-015 17.8346 12.932 -2.60104 -3.50018e-006 -8.24113e-006 -3.00001 8.0292 -4.9514 0.697643 -60.9736 -10.1301 6.30816 -118.977 35.5928 29.0041 -1.51954e-005 -6.31196e-007 -1.4487e-006 -20.8061 25.7211 5.6474 -1.26551e-006 -1.24601e-005 3 -8.02907 -4.95125 -0.697617 178.724 33.8099 -2.84512 -180 7.01592e-015 179.142 -178.085 28.6134 178.104 6.54413e-007 -3.04859e-006 0.341787 -18.1764 67.1612 18.8608 8.12988 25.233 -3.48492 -173.169 34.1001 -2.16215 4.5067e-006 -1.99009e-005 -0.83133 -2.02233 -27.9033 0.267693 2.97929e-007 -3.52777e-006 -0.434521 18.8579 68.1236 -19.6375 -8.1328 25.2329 3.48616 
50.068 93.7858 19.6496 2.26058 11.5824 -4.7512 -0.0717185 0.621016 -0.31857 -0.137409 5.24524 -0.62519 -0.130187 6.89028 -0.623725 -16.185 -35.3027 -6.56062 16.1687 16.8308 -4.30017 58.0938 -4.13368 -2.50673 124.783 35.5852 -24.1934 8.34896e-015 3.18055e-015 3.18055e-015 17.8551 12.9692 -2.60755 -3.50018e-006 -8.24113e-006 -3.00001 8.0292 -4.9514 0.697643 -61.0021 -10.1166 6.30009 -118.817 35.4742 28.9015 -1.51954e-005 -6.31196e-007 -1.4487e-006 -20.8425 25.7514 5.66054 -1.26551e-006 -1.24601e-005 3 -8.02907 -4.95125 -0.697617 178.705 33.4551 -2.82562 -180 7.01592e-015 179.142 -178.09 28.2807 178.123 6.54413e-007 -3.04859e-006 0.334584 -18.1667 67.1474 18.8493 8.12988 25.233 -3.48492 -173.192 33.7196 -2.13514 4.5067e-006 -1.99009e-005 -0.831744 -2.0342 -27.5477 0.261252 2.97929e-007 -3.52777e-006 -0.428541 18.8644 68.1332 -19.6455 -8.1328 25.2329 3.48616 
50.087 93.8713 19.7346 2.25493 11.4713 -4.77279 -0.0703206 0.608413 -0.317364 -0.134727 5.22003 -0.623006 -0.12759 6.86507 -0.62157 -16.1173 -35.005 -6.46509 16.1172 16.7136 -4.25154 58.1167 -4.1215 -2.50085 124.634 35.4976 -24.087 5.1684e-015 4.77083e-015 6.36111e-015 17.8746 13.0011 -2.61306 -3.50018e-006 -8.24113e-006 -3.00001 8.0292 -4.9514 0.697643 -61.0369 -10.1076 6.29473 -118.657 35.3622 28.8031 -1.51954e-005 -6.31196e-007 -1.4487e-006 -20.8803 25.7738 5.67198 -1.26551e-006 -1.24601e-005 3 -8.02907 -4.95125 -0.697617 178.688 33.0973 -2.80673 -180 7.01592e-015 179.142 -178.095 27.9476 178.142 6.54413e-007 -3.04859e-006 0.327396 -18.1569 67.1336 18.8376 8.12988 25.233 -3.48492 -173.212 33.336 -2.11149 4.5067e-006 -1.99009e-005 -0.832221 -2.04641 -27.1921 0.254813 2.97929e-007 -3.52777e-006 -0.42259 18.8705 68.1421 -19.6529 -8.1328 25.2329 3.48616 
50.0744 93.9622 19.835 2.24806 11.3576 -4.79492 -0.0689635 0.595975 -0.315907 -0.132136 5.19515 -0.620324 -0.125105 6.84018 -0.618913 -16.0425 -34.6989 -6.36534 16.0597 16.5913 -4.20018 58.1422 -4.10917 -2.49509 124.485 35.4116 -23.9793 1.27222e-014 4.77083e-015 3.18055e-015 17.8933 13.0284 -2.61765 -3.50018e-006 -8.24113e-006 -3.00001 8.0292 -4.9514 0.697643 -61.0768 -10.1024 6.29171 -118.497 35.2559 28.7084 -1.51954e-005 -6.31196e-007 -1.4487e-006 -20.9192 25.7896 5.68192 -1.26551e-006 -1.24601e-005 3 -8.02907 -4.95125 -0.697617 178.672 32.7371 -2.78843 -180 7.01592e-015 179.142 -178.1 27.6147 178.16 6.54413e-007 -3.04859e-006 0.32023 -18.1469 67.1199 18.826 8.12988 25.233 -3.48492 -173.23 32.9499 -2.09095 4.5067e-006 -1.99009e-005 -0.832756 -2.05897 -26.8368 0.248378 2.97929e-007 -3.52777e-006 -0.416675 18.8761 68.1504 -19.6599 -8.1328 25.2329 3.48616 
50.0868 94.042 19.9144 2.24004 11.2418 -4.81746 -0.0676351 0.583674 -0.314244 -0.129609 5.17054 -0.61724 -0.122697 6.81557 -0.615852 -15.9611 -34.3857 -6.262 15.9965 16.465 -4.14644 58.1703 -4.09678 -2.48948 124.336 35.327 -23.8708 2.70347e-014 1.27222e-014 7.95139e-015 17.9114 13.0515 -2.62143 -3.50018e-006 -8.24113e-006 -3.00001 8.0292 -4.9514 0.697643 -61.1206 -10.1006 6.2907 -118.337 35.1542 28.617 -1.51954e-005 -6.31196e-007 -1.4487e-006 -20.9589 25.7995 5.69055 -1.26551e-006 -1.24601e-005 3 -8.02907 -4.95125 -0.697617 178.658 32.3751 -2.77072 -180 7.01592e-015 179.142 -178.106 27.2823 178.179 6.54413e-007 -3.04859e-006 0.313095 -18.1368 67.1063 18.8142 8.12988 25.233 -3.48492 -173.245 32.562 -2.07337 4.5067e-006 -1.99009e-005 -0.833346 -2.07187 -26.4823 0.241953 2.97929e-007 -3.52777e-006 -0.410801 18.8814 68.1582 -19.6664 -8.1328 25.2329 3.48616 
50.0756 94.149 20.0824 2.23093 11.1242 -4.84026 -0.0663235 0.571481 -0.312423 -0.127117 5.14615 -0.613852 -0.120331 6.79118 -0.612486 -15.874 -34.0667 -6.1557 15.928 16.3361 -4.09063 58.201 -4.08443 -2.48411 124.186 35.2442 -23.7616 -1.76556e-031 6.36111e-015 1.59028e-015 17.929 13.0709 -2.62447 -3.50018e-006 -8.24113e-006 -3.00001 8.0292 -4.9514 0.697643 -61.167 -10.1015 6.29135 -118.177 35.0561 28.5283 -1.51954e-005 -6.31196e-007 -1.4487e-006 -20.999 25.8048 5.69808 -1.26551e-006 -1.24601e-005 3 -8.02907 -4.95125 -0.697617 178.646 32.012 -2.75362 -180 7.01592e-015 179.142 -178.111 26.9508 178.197 6.54413e-007 -3.04859e-006 0.305996 -18.1267 67.0927 18.8025 8.12988 25.233 -3.48492 -173.258 32.173 -2.05851 4.5067e-006 -1.99009e-005 -0.833985 -2.08511 -26.1291 0.235541 2.97929e-007 -3.52777e-006 -0.404975 18.8864 68.1656 -19.6727 -8.1328 25.2329 3.48616 
50.0778 94.2205 20.1473 2.2208 11.0053 -4.86319 -0.0650169 0.559369 -0.310489 -0.124635 5.12191 -0.610259 -0.117973 6.76695 -0.608913 -15.7819 -33.7434 -6.04705 15.8548 16.2055 -4.0331 58.2343 -4.07221 -2.47901 124.036 35.163 -23.6521 -9.14409e-015 1.59028e-015 1.59028e-015 17.9463 13.087 -2.62688 -3.50018e-006 -8.24113e-006 -3.00001 8.0292 -4.9514 0.697643 -61.215 -10.1046 6.29332 -118.019 34.9608 28.4416 -1.51954e-005 -6.31196e-007 -1.4487e-006 -21.0392 25.8064 5.70468 -1.26551e-006 -1.24601e-005 3 -8.02907 -4.95125 -0.697617 178.636 31.6485 -2.73706 -180 7.01592e-015 179.142 -178.116 26.6206 178.215 6.54413e-007 -3.04859e-006 0.298941 -18.1165 67.0792 18.7907 8.12988 25.233 -3.48492 -173.268 31.7836 -2.04622 4.5067e-006 -1.99009e-005 -0.834669 -2.09871 -25.7775 0.229148 2.97929e-007 -3.52777e-006 -0.399201 18.8913 68.1728 -19.6787 -8.1328 25.2329 3.48616 
50.0578 94.2975 20.2432 2.20971 10.8853 -4.88609 -0.0637034 0.54731 -0.308488 -0.122134 5.09779 -0.606556 -0.115589 6.74282 -0.605233 -15.6855 -33.4171 -5.93662 15.7772 16.0744 -3.97415 58.2701 -4.06021 -2.47426 123.884 35.0835 -23.5425 3.97569e-015 4.77083e-015 4.77083e-015 17.9635 13.1004 -2.62876 -3.50018e-006 -8.24113e-006 -3.00001 8.0292 -4.9514 0.697643 -61.2632 -10.1093 6.29627 -117.863 34.8671 28.3567 -1.51954e-005 -6.31196e-007 -1.4487e-006 -21.0792 25.8053 5.71058 -1.26551e-006 -1.24601e-005 3 -8.02907 -4.95125 -0.697617 178.627 31.2851 -2.72113 -180 7.01592e-015 179.142 -178.121 26.2921 178.233 6.54413e-007 -3.04859e-006 0.291936 -18.1063 67.0657 18.779 8.12988 25.233 -3.48492 -173.277 31.3945 -2.03629 4.5067e-006 -1.99009e-005 -0.835395 -2.11265 -25.428 0.222776 2.97929e-007 -3.52777e-006 -0.393487 18.8961 68.1799 -19.6847 -8.1328 25.2329 3.48616 
50.0537 94.378 20.3422 2.19775 10.7647 -4.90884 -0.0623712 0.535274 -0.306468 -0.119587 5.07371 -0.602842 -0.113144 6.71874 -0.601544 -15.5855 -33.0891 -5.82498 15.6955 15.944 -3.91413 58.3085 -4.04854 -2.4699 123.732 35.0058 -23.4332 1.66979e-014 9.54166e-015 6.36111e-015 17.9807 13.1115 -2.63019 -3.50018e-006 -8.24113e-006 -3.00001 8.0292 -4.9514 0.697643 -61.3104 -10.1151 6.29985 -117.709 34.7742 28.2728 -1.51954e-005 -6.31196e-007 -1.4487e-006 -21.1187 25.8026 5.71595 -1.26551e-006 -1.24601e-005 3 -8.02907 -4.95125 -0.697617 178.619 30.9226 -2.70574 -180 7.01592e-015 179.142 -178.126 25.9658 178.251 6.54413e-007 -3.04859e-006 0.284988 -18.0961 67.0523 18.7673 8.12988 25.233 -3.48492 -173.284 31.0064 -2.02852 4.5067e-006 -1.99009e-005 -0.836157 -2.12696 -25.081 0.21643 2.97929e-007 -3.52777e-006 -0.387836 18.901 68.1869 -19.6906 -8.1328 25.2329 3.48616 
50.0672 94.4396 20.4092 2.18498 10.6439 -4.93128 -0.0610085 0.523234 -0.304475 -0.116969 5.04962 -0.599215 -0.110604 6.69465 -0.597945 -15.4824 -32.7608 -5.71268 15.6104 15.8155 -3.85333 58.3495 -4.03729 -2.466 123.579 34.9299 -23.3244 -3.97252e-031 4.77083e-015 4.77083e-015 17.9982 13.1207 -2.63127 -3.50018e-006 -8.24113e-006 -3.00001 8.0292 -4.9514 0.697643 -61.3555 -10.1214 6.30372 -117.558 34.681 28.1897 -1.51954e-005 -6.31196e-007 -1.4487e-006 -21.1573 25.7994 5.72101 -1.26551e-006 -1.24601e-005 3 -8.02907 -4.95125 -0.697617 178.613 30.5615 -2.69095 -180 7.01592e-015 179.142 -178.13 25.642 178.268 6.54413e-007 -3.04859e-006 0.278105 -18.0858 67.0389 18.7556 8.12988 25.233 -3.48492 -173.29 30.6199 -2.02279 4.5067e-006 -1.99009e-005 -0.83695 -2.14162 -24.7371 0.210113 2.97929e-007 -3.52777e-006 -0.382257 18.906 68.1941 -19.6966 -8.1328 25.2329 3.48616 
